<?xml version="1.0" encoding="iso-8859-1"?>
<!-- Generator: Adobe Illustrator 19.0.0, SVG Export Plug-In . SVG Version: 6.00 Build 0)  -->
<svg version="1.1" id="Layer_1" xmlns="http://www.w3.org/2000/svg" xmlns:xlink="http://www.w3.org/1999/xlink" x="0px" y="0px"
	 viewBox="0 0 512 512" style="enable-background:new 0 0 512 512;" xml:space="preserve">
<path style="fill:#FFFFFF;" d="M256,504C119.248,504,8,392.752,8,256S119.248,8,256,8s248,111.248,248,248S392.752,504,256,504z"/>
<path style="fill:#13B7E6;" d="M256,16c132.336,0,240,107.664,240,240S388.336,496,256,496S16,388.336,16,256S123.664,16,256,16
	 M256,0C114.616,0,0,114.616,0,256s114.616,256,256,256s256-114.616,256-256S397.384,0,256,0L256,0z"/>
<path style="fill:#32BEA6;" d="M236.336,406.248v-34.96c-24.856-1.112-48.96-7.736-63.064-15.832l11.144-43.088
	C200,320.824,221.872,328.56,246,328.56c21.144,0,35.608-8.096,35.608-22.816c0-14-11.872-22.848-39.328-32.056
	c-39.688-13.256-66.784-31.664-66.784-67.376c0-32.416,23.016-57.816,62.704-65.552v-34.992h36.336v32.416
	c24.856,1.112,41.56,6.24,53.792,12.144l-10.752,41.624c-9.632-4.048-26.704-12.536-53.432-12.536
	c-24.104,0-31.896,10.312-31.896,20.632c0,12.144,12.984,19.88,44.52,31.664c44.128,15.472,61.944,35.712,61.944,68.88
	c0,32.776-23.376,60.752-66.024,68.128v37.544h-36.352V406.248z"/>
<g>
</g>
<g>
</g>
<g>
</g>
<g>
</g>
<g>
</g>
<g>
</g>
<g>
</g>
<g>
</g>
<g>
</g>
<g>
</g>
<g>
</g>
<g>
</g>
<g>
</g>
<g>
</g>
<g>
</g>
</svg>
